<?xml version="1.0" standalone="no"?>
<!DOCTYPE svg PUBLIC "-//W3C//DTD SVG 20010904//EN"
 "http://www.w3.org/TR/2001/REC-SVG-20010904/DTD/svg10.dtd">
<svg version="1.0" xmlns="http://www.w3.org/2000/svg"
 width="1335.000000pt" height="1335.000000pt" viewBox="0 0 1335.000000 1335.000000"
 preserveAspectRatio="xMidYMid meet">
<metadata>
Created by potrace 1.14, written by Peter Selinger 2001-2017
</metadata>
<g transform="translate(0.000000,1335.000000) scale(0.100000,-0.100000)"
fill="#000000" stroke="none">
<path d="M2805 13293 c-48 -171 -68 -245 -115 -423 -28 -107 -58 -217 -65
-245 -13 -45 -31 -111 -105 -390 -12 -44 -23 -87 -25 -95 -2 -8 -13 -49 -24
-90 -87 -324 -136 -505 -246 -915 -70 -258 -135 -504 -147 -545 -11 -41 -28
-106 -38 -145 -10 -38 -29 -106 -40 -150 -12 -44 -24 -87 -26 -95 -2 -8 -33
-125 -69 -260 -37 -135 -73 -270 -81 -300 -8 -30 -26 -95 -39 -145 -13 -49
-83 -308 -154 -575 -72 -267 -137 -512 -146 -545 -9 -33 -30 -109 -45 -170
-16 -60 -47 -175 -69 -255 -54 -202 -132 -492 -137 -510 -2 -8 -17 -64 -34
-125 -16 -60 -32 -119 -34 -130 -3 -11 -54 -204 -115 -430 -61 -225 -114 -423
-117 -439 -3 -16 -7 -32 -9 -36 -8 -12 -74 -277 -82 -325 -10 -66 -10 -295 1
-365 10 -71 49 -205 82 -283 124 -294 378 -539 676 -651 68 -26 92 -33 388
-112 91 -24 280 -75 420 -112 l255 -69 17 56 c18 61 167 613 174 646 2 11 18
70 34 130 17 61 33 117 34 125 2 8 36 134 76 280 39 146 73 272 75 280 4 16
65 247 114 430 17 63 35 131 41 150 6 19 42 154 81 300 79 298 160 599 214
800 20 74 45 169 56 210 11 41 29 108 40 148 11 40 22 82 24 93 2 10 6 23 9
27 3 5 7 19 9 33 5 24 42 164 72 269 8 30 17 67 20 81 3 14 13 55 24 90 16 56
28 97 36 134 5 17 51 189 140 520 48 176 88 327 90 335 2 8 17 67 35 130 17
63 33 123 35 133 2 10 27 103 55 205 29 103 53 194 55 203 2 10 17 66 33 125
66 245 163 604 167 621 2 10 49 185 104 389 103 384 108 406 120 514 9 70 6
233 -4 290 -70 403 -305 726 -651 899 -112 56 -173 75 -554 175 -52 14 -194
51 -315 84 -121 33 -232 62 -247 66 -14 3 -33 9 -42 12 -11 4 -19 -8 -31 -53z"/>
<path d="M9155 11569 c-201 -26 -372 -89 -530 -194 -259 -172 -428 -418 -513
-745 -16 -61 -123 -458 -199 -740 -8 -30 -16 -62 -18 -70 -2 -8 -56 -208 -120
-445 -64 -236 -117 -437 -119 -445 -2 -8 -16 -60 -31 -115 -115 -430 -137
-512 -140 -528 -2 -9 -6 -21 -9 -25 -3 -5 -7 -21 -10 -37 -3 -16 -17 -69 -30
-119 -25 -89 -79 -291 -89 -331 -3 -11 -37 -137 -75 -280 -163 -604 -278
-1032 -318 -1185 -14 -52 -54 -201 -89 -330 -35 -129 -75 -278 -89 -330 -43
-164 -93 -348 -146 -545 -28 -104 -53 -194 -54 -200 -2 -5 -6 -23 -11 -40 -4
-16 -52 -196 -106 -400 -54 -203 -108 -406 -120 -450 -12 -44 -27 -100 -34
-125 -8 -25 -37 -133 -65 -240 -28 -107 -53 -202 -56 -211 -3 -12 9 -20 53
-32 101 -28 217 -59 237 -63 10 -2 33 -8 50 -13 30 -10 78 -23 281 -76 50 -13
142 -38 205 -55 63 -17 124 -33 135 -36 11 -2 31 -6 45 -9 107 -24 276 -33
390 -20 126 15 302 71 417 132 221 117 399 298 509 518 59 116 84 192 160 490
1 6 21 79 44 164 23 84 43 161 45 170 4 16 165 616 256 951 27 102 63 235 79
295 90 336 152 569 171 635 12 41 22 82 24 90 2 8 46 175 98 370 53 195 105
389 116 430 11 41 49 185 86 320 36 135 67 252 69 260 2 8 14 51 26 95 11 44
29 112 40 150 10 39 53 198 95 355 42 157 86 319 97 360 10 41 44 167 75 280
30 113 57 212 59 220 2 8 22 83 44 165 23 83 50 184 61 225 22 86 18 70 58
220 36 132 83 307 115 430 38 141 126 468 158 585 47 173 59 225 53 235 -3 4
-27 13 -53 19 -26 6 -81 20 -122 32 -41 11 -102 27 -135 35 -33 8 -73 19 -90
25 -40 13 -336 92 -505 134 -186 47 -342 61 -475 44z"/>
<path d="M5685 10199 c-88 -18 -171 -41 -210 -59 -134 -59 -282 -146 -331
-194 -6 -6 -32 -31 -59 -55 -71 -66 -169 -193 -219 -284 -79 -145 -78 -143
-336 -1107 -16 -58 -54 -199 -85 -315 -31 -115 -59 -218 -61 -227 -6 -25 -7
-31 -59 -223 -47 -174 -86 -318 -154 -575 -22 -80 -58 -215 -81 -300 -76 -283
-82 -305 -85 -320 -2 -8 -18 -67 -35 -130 -54 -198 -68 -251 -110 -410 -22
-85 -45 -169 -51 -186 -5 -17 -11 -40 -13 -50 -3 -10 -11 -44 -19 -74 -9 -30
-27 -100 -42 -155 -14 -55 -37 -139 -51 -186 -13 -47 -26 -94 -28 -105 -2 -10
-22 -86 -45 -169 -22 -82 -47 -175 -55 -205 -35 -133 -290 -1085 -316 -1180
-49 -177 -102 -374 -106 -390 -11 -48 -73 -280 -130 -489 -25 -91 -61 -226
-80 -300 -19 -75 -51 -191 -70 -258 -18 -67 -35 -137 -36 -154 l-3 -32 215
-59 c118 -32 224 -60 235 -63 25 -6 98 -25 245 -65 63 -17 122 -33 130 -35
125 -34 230 -56 293 -63 535 -57 1040 246 1246 748 18 45 135 464 211 755 31
119 208 779 266 991 30 111 56 210 58 220 2 10 16 60 29 109 14 50 38 135 52
190 15 55 31 116 36 135 5 19 11 42 13 50 2 8 32 119 66 245 34 127 63 238 65
248 2 9 6 21 9 25 3 5 7 19 10 33 2 13 63 245 136 514 72 270 140 524 151 565
11 41 63 235 116 430 52 195 101 378 108 405 8 28 32 120 55 205 23 85 43 162
45 170 2 8 21 80 43 160 22 80 63 233 91 340 29 107 65 242 81 300 16 58 63
233 105 390 42 157 92 344 111 415 38 139 62 231 68 255 2 8 18 66 35 129 17
63 29 116 28 118 -2 1 -64 19 -137 38 -74 20 -261 70 -415 112 -154 41 -313
83 -354 94 -196 53 -410 63 -576 28z"/>
<path d="M10680 8987 c0 -2 -16 -64 -35 -138 -20 -74 -38 -142 -40 -152 -2
-10 -7 -27 -10 -37 -3 -10 -8 -27 -10 -37 -2 -10 -33 -126 -69 -258 -37 -132
-68 -249 -70 -260 -2 -11 -25 -94 -50 -185 -25 -91 -58 -217 -75 -280 -16 -63
-50 -191 -76 -285 -25 -93 -72 -269 -105 -390 -32 -121 -92 -346 -134 -500
-41 -154 -89 -332 -106 -395 -17 -63 -39 -146 -50 -185 -10 -38 -32 -122 -49
-185 -16 -63 -51 -191 -76 -285 -25 -93 -53 -195 -61 -225 -8 -30 -31 -116
-50 -190 -20 -74 -51 -189 -69 -255 -28 -101 -128 -475 -141 -525 -2 -8 -22
-82 -44 -165 -22 -82 -42 -157 -45 -166 -2 -10 -17 -68 -34 -130 -17 -63 -43
-159 -58 -214 -14 -55 -41 -154 -59 -220 -18 -66 -62 -230 -98 -365 -36 -135
-86 -321 -111 -415 -26 -93 -63 -235 -84 -315 -21 -80 -63 -238 -94 -351 -69
-253 -79 -313 -80 -448 -2 -207 36 -377 122 -551 156 -314 434 -538 786 -632
93 -25 233 -62 325 -87 41 -11 170 -45 285 -76 116 -31 217 -58 225 -60 8 -2
31 -9 50 -14 19 -6 37 -7 41 -3 5 5 56 191 84 302 7 28 204 765 241 900 8 30
17 64 19 75 3 11 16 61 30 110 28 101 74 275 201 747 114 427 113 425 130 488
8 30 17 62 19 70 3 13 66 248 180 670 19 69 45 168 59 220 14 52 54 203 90
335 70 260 71 266 205 770 50 187 97 363 106 390 8 28 25 93 39 145 55 212 97
367 107 396 5 17 11 40 13 50 6 29 36 145 47 179 11 36 99 363 104 387 2 9 26
101 54 205 220 816 238 883 247 935 12 77 11 297 -1 373 -20 117 -22 127 -59
230 -110 306 -358 568 -654 692 -82 34 -127 48 -297 92 -38 11 -106 29 -150
40 -44 12 -206 56 -360 97 -154 41 -286 77 -292 79 -7 2 -13 3 -13 2z"/>
</g>
</svg>
